<svg xmlns="http://www.w3.org/2000/svg" viewBox="0 0 64 64" role="img"
     aria-label="رمز شركة المروج الخضراء">
  <!--
    نسخة مبسّطة من ختم الشركة، مرسومة خصيصاً لتبقى مقروءة بحجم 16px
    في شريط المتصفّح. الشعار الكامل موجود في logo.png.
  -->
  <circle cx="32" cy="32" r="31" fill="#2f0f06"/>
  <circle cx="32" cy="32" r="25" fill="#fbf8f3"/>

  <!-- قوس الترس -->
  <path d="M15 36a17 17 0 0 0 34 0" fill="none" stroke="#9c918a" stroke-width="4"/>

  <!-- سنابل جانبية -->
  <g fill="#5c857b">
    <path d="M13 42c-3-2-4-6-3-10 3 2 4 6 3 10z"/>
    <path d="M51 42c3-2 4-6 3-10-3 2-4 6-3 10z"/>
  </g>

  <!-- السنابل الذهبية في الوسط -->
  <g fill="#cdb376">
    <path d="M32 47c-3.6-7-3.6-16 0-23 3.6 7 3.6 16 0 23z"/>
    <path d="M32 47c-3.6-7-3.6-16 0-23 3.6 7 3.6 16 0 23z" transform="rotate(-33 32 47)"/>
    <path d="M32 47c-3.6-7-3.6-16 0-23 3.6 7 3.6 16 0 23z" transform="rotate(33 32 47)"/>
  </g>
</svg>
